<svg width="48" height="48" viewBox="0 0 48 48" fill="none" xmlns="http://www.w3.org/2000/svg">
<path d="M24.75 21H30V18H27V16.5H24V18.075C23.0886 18.2601 22.2785 18.7772 21.727 19.5259C21.1754 20.2746 20.9217 21.2016 21.0152 22.1269C21.1087 23.0521 21.5426 23.9097 22.2327 24.533C22.9229 25.1563 23.82 25.5009 24.75 25.5H26.25C26.4489 25.5 26.6397 25.579 26.7803 25.7197C26.921 25.8603 27 26.0511 27 26.25C27 26.4489 26.921 26.6397 26.7803 26.7803C26.6397 26.921 26.4489 27 26.25 27H21V30H24V31.5H27V29.925C27.9114 29.7399 28.7215 29.2228 29.273 28.4741C29.8246 27.7254 30.0782 26.7984 29.9848 25.8731C29.8913 24.9479 29.4574 24.0903 28.7672 23.467C28.0771 22.8437 27.18 22.4991 26.25 22.5H24.75C24.5511 22.5 24.3603 22.421 24.2197 22.2803C24.079 22.1397 24 21.9489 24 21.75C24 21.5511 24.079 21.3603 24.2197 21.2197C24.3603 21.079 24.5511 21 24.75 21Z" fill="#F78764"/>
<path d="M43.5 19.5H40.47C40.4269 18.3149 40.141 17.1512 39.6302 16.081C39.1193 15.0108 38.3943 14.0568 37.5 13.278V7.5C37.5 7.22143 37.4224 6.94837 37.276 6.7114C37.1295 6.47444 36.92 6.28294 36.6708 6.15836C36.4217 6.03378 36.1427 5.98104 35.8653 6.00606C35.5878 6.03108 35.3229 6.13286 35.1 6.3L29.5005 10.5H22.5C14.235 10.5 8.3055 15.3615 7.578 22.5H7.5C7.10218 22.5 6.72064 22.342 6.43934 22.0607C6.15804 21.7794 6 21.3978 6 21V18H3V21C3.00119 22.1931 3.47568 23.337 4.31934 24.1807C5.16299 25.0243 6.30689 25.4988 7.5 25.5H7.605C7.82253 27.4669 8.46177 29.3637 9.4791 31.0611C10.4964 32.7585 11.8679 34.2164 13.5 35.3355V40.5C13.5 40.8978 13.658 41.2794 13.9393 41.5607C14.2206 41.842 14.6022 42 15 42H21C21.3978 42 21.7794 41.842 22.0607 41.5607C22.342 41.2794 22.5 40.8978 22.5 40.5V37.5H27V40.5C27 40.8978 27.158 41.2794 27.4393 41.5607C27.7206 41.842 28.1022 42 28.5 42H34.5C34.8978 42 35.2794 41.842 35.5607 41.5607C35.842 41.2794 36 40.8978 36 40.5V35.4555C37.0835 34.9418 38.0309 34.1803 38.7655 33.2325C39.5001 32.2848 40.0013 31.1774 40.2285 30H43.5C43.8978 30 44.2794 29.842 44.5607 29.5607C44.842 29.2794 45 28.8978 45 28.5V21C45 20.6022 44.842 20.2206 44.5607 19.9393C44.2794 19.658 43.8978 19.5 43.5 19.5ZM42 27H37.686C37.2285 31.1295 36.45 32.2275 33 33.4725V39H30V34.5H19.5V39H16.5V33.567C14.6939 32.7077 13.1701 31.3513 12.1074 29.6569C11.0447 27.9624 10.4871 26.0001 10.5 24C10.5 16.7475 16.527 13.5 22.5 13.5H30.4995L34.5 10.5V14.664C38.127 17.454 37.3695 19.443 37.527 22.5H42V27Z" fill="#F78764"/>
</svg>
